<svg id="Layer_5" data-name="Layer 5" xmlns="http://www.w3.org/2000/svg" viewBox="0 0 64.54 64.96"><defs><style>.cls-1{fill:#263363;}.cls-1,.cls-2,.cls-3,.cls-4,.cls-5,.cls-6,.cls-7{stroke:#000;stroke-width:0.98px;}.cls-2{fill:#18233f;}.cls-3{fill:#333f75;}.cls-4{fill:#4351a3;}.cls-5{fill:#efd2a8;}.cls-6{fill:#a38f74;}.cls-7{fill:#3e2c15;}</style></defs><title>house2</title><polygon class="cls-1" points="38.92 39.68 1.13 29.68 1.13 23.68 38.92 36.18 38.92 39.68"/><polygon class="cls-2" points="63.63 31.68 38.92 39.68 38.92 36.18 63.63 25.68 63.63 31.68"/><polygon class="cls-3" points="38.92 36.18 36.02 1.18 63.63 25.68 38.92 36.18"/><polygon class="cls-4" points="36.02 1.18 1.13 23.68 38.92 36.18 36.02 1.18"/><polygon class="cls-5" points="38.92 64.18 7.43 53.18 7.43 31.68 38.92 39.68 38.92 64.18"/><polygon class="cls-6" points="61.21 53.68 38.92 64.18 38.92 39.68 61.21 32.68 61.21 53.68"/><polygon class="cls-7" points="26.16 59.72 26.16 44.68 15.67 42.18 15.67 56.06 26.16 59.72"/></svg>