<svg id="Layer_5" data-name="Layer 5" xmlns="http://www.w3.org/2000/svg" viewBox="0 0 66.62 64.96"><defs><style>.cls-1{fill:#7f1621;}.cls-1,.cls-2,.cls-3,.cls-4,.cls-5,.cls-6,.cls-7{stroke:#000;}.cls-2{fill:#52141c;}.cls-3{fill:#721622;}.cls-4{fill:#9f1c26;}.cls-5{fill:#efd2a8;}.cls-6{fill:#a38f74;}.cls-7{fill:#3e2c15;}</style></defs><title>house1</title><polygon class="cls-1" points="26.44 39.68 65.44 29.68 65.44 23.68 26.44 36.18 26.44 39.68"/><polygon class="cls-2" points="0.94 31.68 26.44 39.68 26.44 36.18 0.94 25.68 0.94 31.68"/><polygon class="cls-3" points="26.44 36.18 29.44 1.18 0.94 25.68 26.44 36.18"/><polygon class="cls-4" points="29.44 1.18 65.44 23.68 26.44 36.18 29.44 1.18"/><polygon class="cls-5" points="26.44 64.18 58.94 53.18 58.94 31.68 26.44 39.68 26.44 64.18"/><polygon class="cls-6" points="3.44 53.68 26.44 64.18 26.44 39.68 3.44 32.68 3.44 53.68"/><polygon class="cls-7" points="39.62 59.72 39.62 44.68 50.44 42.18 50.44 56.05 39.62 59.72"/></svg>