<svg id="Layer_8" data-name="Layer 8" xmlns="http://www.w3.org/2000/svg" viewBox="0 0 123.75 72.28"><defs><style>.cls-1{fill:#787878;}.cls-1,.cls-10,.cls-2,.cls-3,.cls-4,.cls-5,.cls-6,.cls-7,.cls-8,.cls-9{stroke:#000;stroke-width:0.5px;}.cls-2{fill:#473318;}.cls-3{fill:#515151;}.cls-4{fill:none;}.cls-5{fill:#e5c31a;}.cls-6{fill:#adaca8;}.cls-8{fill:#f1be1a;}.cls-9{fill:#493d19;}.cls-10{fill:#c59c2d;}.cls-11{fill:#fff;opacity:0.39;isolation:isolate;}</style></defs><title>hyroSword</title><rect class="cls-1" x="84.32" y="88.73" width="15.11" height="15.11" rx="3.5" ry="3.5" transform="translate(79.63 -77.88) rotate(41.54)"/><rect class="cls-2" x="88.14" y="84.95" width="7" height="23.03" rx="1.68" ry="1.68" transform="translate(79.69 -77.68) rotate(41.54)"/><rect class="cls-3" x="89.22" y="89.51" width="10.67" height="17.9" transform="translate(81.74 -79.11) rotate(41.54)"/><line class="cls-4" x1="86.24" y1="50.35" x2="94.23" y2="57.42"/><line class="cls-4" x1="91.21" y1="60.83" x2="83.23" y2="53.75"/><line class="cls-4" x1="80.36" y1="56.99" x2="88.34" y2="64.07"/><polygon class="cls-5" points="89.39 41.52 97.37 48.59 93.45 50.26 88.21 45.62 89.39 41.52"/><polygon class="cls-6" points="90.76 42.73 96 47.38 121.28 18.85 123.38 11.29 116.04 14.21 90.76 42.73"/><path class="cls-1" d="M20.53,45.2c4-8.5,54.5,0,54.5,0v54l-3.5,3-8-4.5L53,98.7l-13,7-19.5-6.5S18.83,48.81,20.53,45.2Z" transform="translate(-7.33 -41.17)"/><polygon class="cls-7" points="44.97 17.03 55.7 17.03 55.7 26.03 63.7 26.03 61.2 34.53 54.45 34.53 54.45 56.53 45.2 56.53 45.2 33.53 39.2 36.78 35.7 25.53 45.2 25.53 44.97 17.03"/><polygon class="cls-8" points="40.2 59.62 45.2 56.62 45.2 33.62 39.06 33.62 40.2 59.62"/><polygon class="cls-9" points="54.45 67.53 54.45 56.53 45.2 56.62 45.2 67.53 54.45 67.53"/><polygon class="cls-8" points="54.45 56.53 61.2 58.72 61.2 34.53 54.45 34.53 54.45 56.53"/><polygon class="cls-8" points="0.7 59.62 6.92 68.16 31.2 72.03 45.2 67.53 45.2 56.62 32.7 64.53 0.7 51.03 8.04 61.53 0.7 59.62"/><polygon class="cls-8" points="54.45 56.53 54.45 67.53 67.7 70.03 83.7 67.53 87.7 56.53 73.2 63.28 78.7 51.03 67.7 58.03 64.2 61.03 54.45 56.53"/><polygon class="cls-10" points="67.7 53.53 78.7 51.03 67.7 58.03 67.7 53.53"/><polygon class="cls-10" points="87.7 56.53 76.23 56.53 73.2 63.28 87.7 56.53"/><path class="cls-11" d="M35.41,46.76c3.08-1.2,12.13-2.43,14.57.15S41.8,50.57,37.3,54.19c-.92.74-1.87,9.83-5.89,8.76-4.31-1.14-7.44-6.22-6.29-9.88C26,50.41,31.87,48.13,35.41,46.76Z" transform="translate(-7.33 -41.17)"/><polygon class="cls-10" points="13.14 56.28 0.7 51.03 13.14 52.41 13.14 56.28"/><polygon class="cls-10" points="8.04 61.53 0.7 59.62 6.92 59.62 8.04 61.53"/></svg>