<svg id="Layer_8" data-name="Layer 8" xmlns="http://www.w3.org/2000/svg" viewBox="0 0 88.14 72.28"><defs><style>.cls-1{fill:#787878;}.cls-1,.cls-2,.cls-3,.cls-4,.cls-5{stroke:#000;stroke-width:0.5px;}.cls-3{fill:#f1be1a;}.cls-4{fill:#493d19;}.cls-5{fill:#c59c2d;}.cls-6{fill:#fff;opacity:0.39;isolation:isolate;}</style></defs><title>hyro</title><path class="cls-1" d="M13.2,4c4-8.5,54.5,0,54.5,0V58l-3.5,3-8-4.5-10.5,1-13,7L13.2,58S11.5,7.64,13.2,4Z" transform="translate(0 0)"/><polygon class="cls-2" points="44.97 17.03 55.7 17.03 55.7 26.03 63.7 26.03 61.2 34.53 54.45 34.53 54.45 56.53 45.2 56.53 45.2 33.53 39.2 36.78 35.7 25.53 45.2 25.53 44.97 17.03"/><polygon class="cls-3" points="40.2 59.62 45.2 56.62 45.2 33.62 39.06 33.62 40.2 59.62"/><polygon class="cls-4" points="54.45 67.53 54.45 56.53 45.2 56.62 45.2 67.53 54.45 67.53"/><polygon class="cls-3" points="54.45 56.53 61.2 58.72 61.2 34.53 54.45 34.53 54.45 56.53"/><polygon class="cls-3" points="0.7 59.62 6.92 68.16 31.2 72.03 45.2 67.53 45.2 56.62 32.7 64.53 0.7 51.03 8.04 61.53 0.7 59.62"/><polygon class="cls-3" points="54.45 56.53 54.45 67.53 67.7 70.03 83.7 67.53 87.7 56.53 73.2 63.28 78.7 51.03 67.7 58.03 64.2 61.03 54.45 56.53"/><polygon class="cls-5" points="67.7 53.53 78.7 51.03 67.7 58.03 67.7 53.53"/><polygon class="cls-5" points="87.7 56.53 76.23 56.53 73.2 63.28 87.7 56.53"/><path class="cls-6" d="M28.08,5.59c3.08-1.2,12.13-2.43,14.57.15S34.47,9.4,30,13c-.92.74-1.87,9.83-5.89,8.76-4.31-1.14-7.44-6.22-6.29-9.88C18.63,9.24,24.54,7,28.08,5.59Z" transform="translate(0 0)"/><polygon class="cls-5" points="13.14 56.28 0.7 51.03 13.14 52.41 13.14 56.28"/><polygon class="cls-5" points="8.04 61.53 0.7 59.62 6.92 59.62 8.04 61.53"/></svg>