<svg id="Layer_8" data-name="Layer 8" xmlns="http://www.w3.org/2000/svg" viewBox="0 0 88.14 72.29"><defs><style>.cls-1{fill:#787878;}.cls-1,.cls-2,.cls-3,.cls-4,.cls-5{stroke:#000;stroke-width:0.5px;}.cls-3{fill:#f1be1a;}.cls-4{fill:#493d19;}.cls-5{fill:#c59c2d;}.cls-6{fill:#fff;opacity:0.39;}</style></defs><title>hyro</title><path class="cls-1" d="M262,480.5c4-8.5,54.5,0,54.5,0v54l-3.5,3-8-4.5-10.5,1-13,7L262,534.5S260.3,484.11,262,480.5Z" transform="translate(-248.8 -476.47)"/><polygon class="cls-2" points="44.97 17.03 55.7 17.03 55.7 26.03 63.7 26.03 61.2 34.53 54.45 34.53 54.45 56.53 45.2 56.53 45.2 33.53 39.2 36.78 35.7 25.53 45.2 25.53 44.97 17.03"/><polygon class="cls-3" points="40.2 59.62 45.2 56.62 45.2 33.62 39.06 33.62 40.2 59.62"/><polygon class="cls-4" points="54.45 67.53 54.45 56.53 45.2 56.62 45.2 67.53 54.45 67.53"/><polygon class="cls-3" points="54.45 56.53 61.2 58.72 61.2 34.53 54.45 34.53 54.45 56.53"/><polygon class="cls-3" points="0.7 59.62 8.7 67.53 31.2 72.03 45.2 67.53 45.2 56.62 32.7 64.53 0.7 51.03 6.7 59.62 0.7 59.62"/><polygon class="cls-3" points="54.45 56.53 54.45 67.53 67.7 70.03 83.7 67.53 87.7 56.53 73.2 63.28 78.7 51.03 67.7 58.03 64.2 61.03 54.45 56.53"/><polygon class="cls-5" points="67.7 53.53 78.7 51.03 67.7 58.03 67.7 53.53"/><polygon class="cls-5" points="87.7 56.53 76.23 56.53 73.2 63.28 87.7 56.53"/><path class="cls-6" d="M276.88,482.06c3.08-1.2,12.13-2.43,14.57.15s-8.18,3.66-12.68,7.28c-.92.74-1.87,9.83-5.89,8.76-4.31-1.14-7.44-6.22-6.29-9.88C267.43,485.71,273.34,483.43,276.88,482.06Z" transform="translate(-248.8 -476.47)"/></svg>