<svg id="Layer_3" data-name="Layer 3" xmlns="http://www.w3.org/2000/svg" viewBox="0 0 69.09 76.29"><defs><style>.cls-1{fill:#381c13;}.cls-1,.cls-2,.cls-3{stroke:#000;}.cls-2{fill:#262217;stroke-width:0.8px;}.cls-3{fill:#4f281a;}</style></defs><title>mer</title><path class="cls-1" d="M246.5,665.1c.81.69,11.73,2.29,24.2-.45,21.78-4.76,23.5-46.31,10.92-54.52-6.14-4-14.95.42-23.57-6.47-4.6-3.68-5.42-7.62-8.75-8-5.43-.67-9.87,9-10.83,11C237.36,609.06,226.18,647.78,246.5,665.1Z" transform="translate(-233.91 -590.41)"/><path class="cls-2" d="M261.39,605.8c-9,.54-28.29,8.54-24.17,27.68,2.45,11.42,7.65,22.52,14,25.7,7.56,3.78,33.85-10.07,33.79-19.41C284.94,630,294.77,603.8,261.39,605.8Z" transform="translate(-233.91 -590.41)"/><path class="cls-3" d="M267.06,662.18c1,.34,17.11,5.48,27.37-3.21,17.92-15.18,2.49-59.38-12.35-62.06-7.24-1.31-13.47,7.44-24.15,4.28C252.22,599.5,247.21,589.87,244,591c-5.22,1.84-2.68,19.87-2.71,22.5C241.26,616.52,241.43,653.6,267.06,662.18Z" transform="translate(-233.91 -590.41)"/></svg>