<svg id="Layer_1" data-name="Layer 1" xmlns="http://www.w3.org/2000/svg" viewBox="0 0 85.73 70.14"><defs><style>.cls-1{fill:#006837;}.cls-2{fill:#015129;}.cls-3{fill:#fff;}.cls-4{fill:red;}</style></defs><title>monster</title><path class="cls-1" d="M84.93,122.52c-.53.42,3.63,1.3,3.89,1.25,2.66-.47,4.77-3.39,7.39-4.21,5.82-1.82,11-4.12,16.65-6.39,4.71-1.89,10.92-1.84,14.13-6.33a10.57,10.57,0,0,0,1.78-5c.25-2.25-.66-2.72,1.56-4.16,3.67-2.37,1.93,4.23,1.39,6.23l2.74-.36c-1.29-2.1-1.37-6.5-2.82-1.15a5.78,5.78,0,0,0-.4,2,2.86,2.86,0,0,0,1.55,2.18c3.12,1.78,8.25-1.74,10.93-2.93C154.24,99,145,88.72,139.15,84.11l-1.82,2.36c4.45,1.88,9.11,6.4,8.93,11.69-.2,5.74-9.63,3.17-13.29,2.83l.4,2.95c3.44-.68,10.17-1.34,12-5.09,2-4.2-4.64-10.27-6.73-13.17l-2.05,2.05c3.6,1.55,10.29,9.3,2.18,10.84l1.85,1q.44-2.71,3.11-2l-1.06-2.56a10.27,10.27,0,0,1-7.08,3.23l1.45,1.9,1.32-1.71-2.2-1.69L134.4,99,137,100.1A88,88,0,0,0,134.64,87l-2.74,1.16c.93,1.73,6.49,9.63,2,10.44l1.69.69c-2-2.87-1.1-8-1.25-11.31s-.84-6.47-.69-9.71c.32-7,4.82-12.83,11-15.73a1.51,1.51,0,0,0,0-2.59c-7.11-3.79-15-4-22.68-1.61-6.4,2-14,5.23-17,11.67-.48,1,.34,2.73,1.69,2.2a19.72,19.72,0,0,1,12.5-.83,1.54,1.54,0,0,0,1.85-1c2.64-7.9-9.8-5.38-13.31-4a1.51,1.51,0,0,0,0,2.89,16.79,16.79,0,0,0,12.77-1.58,1.52,1.52,0,0,0-.36-2.74c-2.86-.65-3.51-.26.6-1.6a32,32,0,0,1,4.79-1.12c3.54-.58,11.09-2.06,14.12.17V59.72c-3,1.77-7.46,1.56-10.83,1.91l-9.1.92.4,2.95a75.89,75.89,0,0,1,15.78-1.67,6.92,6.92,0,0,0,3.64-.28,8.25,8.25,0,0,0-1.48,1,40.22,40.22,0,0,0-3,3.05c-4.28,5.87-3.6,13.31-2.2,20l2.51-1.46C128,80.33,132.79,71.1,137,65a1.51,1.51,0,0,0-1.69-2.2A40.75,40.75,0,0,1,118,65.29l.4,2.95a54.69,54.69,0,0,1,12.7-1.59c2,0,1.9-2.85,0-3-5.46-.44-12.89.72-12.32,7.84.62,7.77,5.31,16.35,9.15,23a1.52,1.52,0,0,0,2.74-.36l2-5.76c.35-1-.8-2.28-1.85-1.85L127,88.1l1.85,1a10.09,10.09,0,0,1-.55-3.36l-2.8.76,1.69,3.63c.66,1.41,2.77.63,2.8-.76l.18-9.5L127.61,81l1.74,2.56a1.5,1.5,0,0,0,2.89-.8l-1.3-6.34c-.34-1.68-2.95-1.26-2.95.4v5.09h3a64.22,64.22,0,0,1,1.62-16.46h-2.89l.14,2.94L132.6,68l-.73-1.7c-.54-1.25-2.41-.77-2.74.36l-2.31,7.92,2.74-.36a28.16,28.16,0,0,1-2.24-5.16,1.51,1.51,0,0,0-2.95.4,47.67,47.67,0,0,0-.12,8l2.95-.4c-.48-2.86-.85-5.72-1.13-8.61l-2.8.76a14.13,14.13,0,0,0,2.28,3.33,1.52,1.52,0,0,0,2.36-.3L130.18,69l-2.59-1.51-3.77-.15A1.51,1.51,0,0,0,121,68c.15,3.8.41,7.74,1.87,11.29a14.51,14.51,0,0,0,2.25,3.85c1.55,1.85,4.16,2.89,5.43,4.95l1.3-2.26c-3.67.24-2.23-7.73-1.88-9.33a1.51,1.51,0,0,0-2.51-1.46,8.81,8.81,0,0,0-3.17,5.85l2.51-.66a56.8,56.8,0,0,1-7.5-8.85c-.79-1.15-2.86-.83-2.8.76.41,10.31,10.51,17.95,5.49,28.9l2.8.76a34.24,34.24,0,0,1-.16-3.67c0,1,1.09-7.71.48-3.88-.32,2-.32,4.7-1.06,6.62-1.63,4.22-10,6.25-13.84,7.57-4.05,1.4-8.16,2.67-12.07,4.44a54.92,54.92,0,0,0-5.68,3A18.92,18.92,0,0,1,88.75,118c-1.29.41-6.47.33-2.2-2.78l-2.05-.54-.1,3.13,2.51,1.46,1.41-6.16-2.74.36.47,3.46c-.14,1.72,2.5,2,2.95.4a9.32,9.32,0,0,1,2.47-4.68l-2.36-.3.14,2.72a1.51,1.51,0,0,0-2.51,1.46l.44,1.65a1.53,1.53,0,0,0,1.45,1.1c5.64,0,11.41-2.39,16.72-4.11,5.14-1.66,11.33-3,16-5.75,3.18-1.86,3.49-4.43,3.78-7.9a47.79,47.79,0,0,0-2-17.88c-.47-1.56-3.07-1.35-2.95.4.69,9.74-.11,19.49-10.49,23.44-2.88,1.09-5.9,1.73-8.8,2.75-1,.36-2,.73-3,1.18-.37.17-6.79,3.86-6.57,2h3L94,110.27l-2.56,1.06,1.46,1.58a1.51,1.51,0,0,0,2.12,0l.89-.64-.9-2.2-1.35,2.25c-.74,1.24.78,2.91,2.05,2.05a42.83,42.83,0,0,1,7.58-4.16l-1.16-2.74a25.21,25.21,0,0,0-3.48,2.61c-1.28,1.14.37,3.23,1.82,2.36l6.71-4.06-1.51-2.59a39.6,39.6,0,0,1-5.45,3l1.82,2.36,4.16-3.62c1.08-.94-.07-3.09-1.46-2.51l-6,2.53L100.2,110a19.81,19.81,0,0,1,7.94-4.32l-1.69-2.2-.6,1.16a1.51,1.51,0,0,0,2.36,1.82l6.77-5.37-2.36-1.82L111.15,101l2.12,2.12a49,49,0,0,1,4.91-3.88l-1.82-2.36L110,103.27l2.36,1.82a8.24,8.24,0,0,1,2.63-2.92l-2.51-1.46a7.7,7.7,0,0,1-1.68,3.06c-1.16,1.54,1.44,3,2.59,1.51a25.42,25.42,0,0,1,4.56-4.66l-2.56-1.06-.08,2.06a1.5,1.5,0,0,0,2.89.8l.84-2-2.95-.4-.18,2.3a1.51,1.51,0,0,0,2.26,1.3q1.71-.2.38,1.72l1.85-1c-.53-.15,1.7-10.48,1.85-11.29a1.5,1.5,0,0,0-2.89-.8c-2.67,8.21-7.91,13.84-16.5,15.56-1.55.31-6.25.92.28.33,1.24-.11,2.49-.12,3.73-.28a16.81,16.81,0,0,0,7.32-2.5,29.58,29.58,0,0,0,9.71-11.37c1.95-4.3-2.26-10.34-3.88-14.14-.7-1.65-3-.4-2.74,1.16,1.61,8.22-5.08,14-10.78,18.66-1.39,1.14.38,3.05,1.82,2.36,6.17-3,12-6.19,15.75-12.17.88-1.41-1.29-3.18-2.36-1.82a45.87,45.87,0,0,1-5.93,6.31l2.51,1.46A21.45,21.45,0,0,1,121,88.78a1.5,1.5,0,0,0-2.59-1.51,23.56,23.56,0,0,0-3,7.65,1.51,1.51,0,0,0,2.51,1.46,45.87,45.87,0,0,0,5.93-6.31l-2.36-1.82c-3.4,5.49-9,8.36-14.68,11.09l1.82,2.36c6.74-5.53,13.4-12.13,11.55-21.58l-2.74,1.16c.93,2.17,2.29,4.49,2.89,6.76,1.25,4.74.09,6.12-2.33,9.31-3.44,4.53-7.28,7.05-13.08,7.58-1.95.18-10.44,0-8.06,4.43,2,3.8,11.41.36,14-1.11,5.83-3.28,9.36-9.08,11.38-15.3l-2.89-.8c-.6,3.23-4.81,13.52.24,15a1.52,1.52,0,0,0,1.85-1l.8-3.25a1.5,1.5,0,0,0-.39-1.46c-1.63-1.44-3.39-1.72-5.2-.39l2.26,1.3.18-2.3c.14-1.84-2.36-1.82-2.95-.4l-.84,2,2.89.8a5,5,0,0,0,.19-2.85,1.52,1.52,0,0,0-2.56-1.06,29.49,29.49,0,0,0-5,5.26l2.59,1.51a13,13,0,0,0,2-3.78c.54-1.55-1.46-2.31-2.51-1.46a13.75,13.75,0,0,0-3.1,3.53,1.51,1.51,0,0,0,2.36,1.82L118.49,99c1.17-1.17-.38-3.35-1.82-2.36a54.72,54.72,0,0,0-5.51,4.35c-1.45,1.3.67,3.37,2.12,2.12a5.88,5.88,0,0,0,1.93-2.34c.92-1.57-1.09-2.82-2.36-1.82l-6.77,5.37,2.36,1.82L109,105a1.52,1.52,0,0,0-1.69-2.2,23.53,23.53,0,0,0-9.26,5.09c-1.08.94.07,3.09,1.46,2.51l6-2.53-1.46-2.51L100,109c-1.38,1.2.38,3,1.82,2.36a39.6,39.6,0,0,0,5.45-3c1.6-1.05.15-3.6-1.51-2.59L99,109.84l1.82,2.36a13.7,13.7,0,0,1,2.87-2.14c1.37-.85.47-3.43-1.16-2.74a46.83,46.83,0,0,0-8.3,4.46l2.05,2.05,1.35-2.25a1.52,1.52,0,0,0-.9-2.2c-1.7-.58-2.66.06-3.81,1.41H95l-1.46-1.58A1.51,1.51,0,0,0,91,110.27l.31,3.14a1.5,1.5,0,0,0,3,0c.2-1.67,0-3.73-1.86-4.35a2.5,2.5,0,0,0-3.23,1.61c-.56,1.74.88,4.49,2.24,5.52,2.14,1.62,3.47.34,5.48-.87,6.13-3.68,14-3.64,19.65-8.19,7-5.57,7.12-14.95,6.55-23.08l-2.95.4a45.7,45.7,0,0,1,2.08,14.29c0,1.58,0,4.8-.61,6.19-1.12,2.35-5.07,3.18-7.29,4q-5.78,2.1-11.64,4c-4.48,1.42-9.38,3.46-14.12,3.42l1.45,1.1-.44-1.65-2.51,1.46a3.27,3.27,0,0,0,4.63.13c1.93-1.81.9-4.48-.07-6.49a1.51,1.51,0,0,0-2.36-.3,15.28,15.28,0,0,0-3.24,6l2.95.4a9.56,9.56,0,0,0-.88-5c-.51-1.2-2.47-.82-2.74.36L84,118.5c-.31,1.35,1.48,2.68,2.51,1.46a5.27,5.27,0,0,0,.57-6.76,1.51,1.51,0,0,0-2.05-.54,6.61,6.61,0,0,0-2.58,6.87c.7,2.91,3.45,2.66,5.93,1.92,4.93-1.47,9.14-5.16,14-7s9.73-3.22,14.47-5.18c3.22-1.33,8-2.89,9.69-6.16,1.26-2.38,2.25-8.09,1.58-10.82C127.64,90.37,125.93,89,124,90c-3.23,1.61-2.46,9.15-2.24,11.88.11,1.33,2.12,2.24,2.8.76a19.59,19.59,0,0,0,1.23-13c-1.36-5.93-6.07-11.36-6.31-17.43l-2.8.76a60.77,60.77,0,0,0,8,9.46c.73.71,2.34.51,2.51-.66a5.62,5.62,0,0,1,2.39-4.53l-2.51-1.46c-.88,4-1.57,13.55,4.78,13.12a1.52,1.52,0,0,0,1.3-2.26c-1.76-2.84-5-3.93-6.74-6.86-2-3.48-2.24-7.78-2.39-11.71l-2.8.76c2.23,3.93,6.56,3.94,9,.15,1-1.65-1.51-3.09-2.59-1.51l-2.26,3.32,2.36-.3a8.07,8.07,0,0,1-1.81-2.73,1.51,1.51,0,0,0-2.8.76c.31,3.15.72,6.28,1.24,9.4.28,1.66,3.06,1.28,2.95-.4a47.67,47.67,0,0,1,.12-8l-2.95.4A31.8,31.8,0,0,0,127,75.74a1.52,1.52,0,0,0,2.74-.36L132,67.47l-2.74.36.73,1.7c.51,1.19,2.49.83,2.74-.36a8.5,8.5,0,0,0-.14-4.53,1.51,1.51,0,0,0-2.89,0A67.45,67.45,0,0,0,128,81.89a1.5,1.5,0,0,0,3,0V76.8l-2.95.4,1.3,6.34,2.89-.8a10.88,10.88,0,0,0-2.51-3.89,1.52,1.52,0,0,0-2.56,1.06l-.18,9.5,2.8-.76L128.1,85c-.63-1.36-2.87-.68-2.8.76a18.6,18.6,0,0,0,.66,4.16,1.51,1.51,0,0,0,1.85,1l3.82-1.6-1.85-1.85-2,5.76,2.74-.36a83.52,83.52,0,0,1-6.63-14.24c-.68-2-2-4.69-2-6.78.15-5.16,5.13-5.62,9.19-5.29v-3a58,58,0,0,0-13.5,1.69c-1.71.42-1.23,2.83.4,2.95a42.52,42.52,0,0,0,18.13-2.62l-1.69-2.2c-5,7.21-9.63,18.12-1.15,24.78a1.51,1.51,0,0,0,2.51-1.46c-1.3-6.23-2.1-13.88,2.88-18.82,1.4-1.39,5-2.45,3.89-5.08-.92-2.27-4.74-2-6.62-2.05a59.58,59.58,0,0,0-16.58,1.78c-1.6.39-1.31,3.12.4,2.95l12.74-1.29c3.06-.31,6-.33,8.7-1.95a1.52,1.52,0,0,0,0-2.59c-4-2.94-11.87-1.24-16.43-.47-3.2.54-10.86,1.63-11.12,5.84a1.47,1.47,0,0,0,.74,1.3,22,22,0,0,0,5,1.38L119,65a13.78,13.78,0,0,1-10.46,1.28v2.89c.82-.32,10.84-3.32,9.62.33l1.85-1a22.49,22.49,0,0,0-14.1.83l1.69,2.2c2.59-5.68,9.54-8.53,15.17-10.29,6.84-2.14,13.95-2.11,20.37,1.31V59.93A21.38,21.38,0,0,0,130.78,76.4c-.54,4.14.42,8.3.56,12.44.12,3.64-.6,8.76,1.62,11.95a1.58,1.58,0,0,0,1.69.69c8.77-1.55,2.08-10.67-.16-14.84a1.51,1.51,0,0,0-2.74,1.16A82.54,82.54,0,0,1,134,100.1a1.52,1.52,0,0,0,2.56,1.06A8.53,8.53,0,0,0,139,97.62c.5-1.2-1.19-2.4-2.2-1.69a6.5,6.5,0,0,0-2.7,3.5,1.51,1.51,0,0,0,1.45,1.9,13.65,13.65,0,0,0,9.2-4.11,1.52,1.52,0,0,0-1.06-2.56c-3.54,0-7.34,1.6-6,5.77a1.54,1.54,0,0,0,1.85,1c3.72-.71,6.74-6.27,2.84-8.9-3.29-2.22-8.07,3.58-6.8,6.71,1.71,4.21,9.21,3.51,10.7-.46,1.92-5.1-3.86-11.8-8.2-13.67-1.2-.52-3,.68-2.05,2.05l3.5,4.87c1.47,2,2.64,2.56,1.47,5.15-1.4,3.09-5.22,3.2-8.4,3.83-1.77.35-1.17,2.8.4,2.95,4.78.45,15.34,3.45,16.26-3.9.87-7-4.27-13.61-10.39-16.21-1.4-.59-3.29,1.19-1.82,2.36a31.46,31.46,0,0,1,6.35,6.08c1,1.38,2.62,3.79,2.23,5.67-.48,2.33-3.16,3-4.95,3.76-.62.27-4.77,2.39-5.2,2.17-1-.49-.17-1.72-.15-2.32.07-1.75.64-3.07-.15-4.85-.9-2-3.17-3.87-5-1.73-2.14,2.5.34,7.8,1.7,10a1.52,1.52,0,0,0,2.74-.36c1-3.54,1.66-13.83-4.39-13.58a5.12,5.12,0,0,0-4.27,3.62c-1.84,5.49,1.92,10.47-5.76,13.18-3.41,1.2-6.89,1.75-10.22,3.25a83.68,83.68,0,0,1-13.19,5.18c-3,.8-7.06,4.36-9.7,4-2-.26-2.29-1.51-4.26,0-1.51,1.2.63,3.31,2.12,2.12Z" transform="translate(-66.65 -55.31)"/><path class="cls-1" d="M116.08,64.8c2.64,5.11,6.11,10.34,8.12,15.73a3,3,0,0,1,.57,2.1,1.26,1.26,0,0,1-.67,2c-.22.48-.62.9-.83,1.4-.77,1.8-.42,4.21-.87,6.06-.64,2.6-4.24,6.63-2.16,9.39a2.82,2.82,0,0,0,4.37.22l-2.51-1.46c-.25.61-4.94-2-5.84-2.15-2.63-.57-7.29,1.42-9-1.82a1.53,1.53,0,0,0-2.05-.54A7.48,7.48,0,0,0,101,101a1.52,1.52,0,0,0,1.85,1.85,18.37,18.37,0,0,0,7.39-4.31l-2.36-1.82a14.89,14.89,0,0,1-6.26,5.29l1.82,2.36,16.74-14c1.36-1.13-.37-3.11-1.82-2.36l-9.91,5.17,1.51,2.59c4.51-2.89,7-7.18,9.42-11.86a1.5,1.5,0,0,0-2.59-1.51c-3.57,5.45-10.19,6-14.71,1.38L101,86.39c1.63-.18,2.81,2,4,2.83a7.12,7.12,0,0,0,3.64,1.24c3.12.19,5.93-1.49,8-3.63a1.51,1.51,0,0,0-1.82-2.36c-3.67,1.79-8.3,3.85-11.5,0l-1.82,2.36c4.61,2.41,12.94,4.82,16.14-.85l-2.59-1.51a32,32,0,0,1-18.18,17.7c-6.4,2.37-13.35,3-18.12,8.4l2.51.66a27.08,27.08,0,0,1-.33-9.75,13.46,13.46,0,0,0,.39-4.3,4.47,4.47,0,0,0-3.77-3.84c-1-.23-2.29.71-1.85,1.85l.58,2.46,2.26-1.3a13.27,13.27,0,0,1-3.45-1.86c-1.91-1.62-5.53-7,1.24-7,2.57,0,6.42,3.11,8.48,4.48,1.54,1,2.78-1.12,1.82-2.36-2.25-2.87-6.59-7.69-10.83-6.74-3.24.72-4.52,4.5-4.12,7.49.87,6.42,10,2.21,5.13-3.57a1.51,1.51,0,0,0-2.36.3c-1.23,2.78-3.44,11.51,2.88,9.31,2.55-.89,5.81-7.34,1.55-8-3.91-.62-4,5.24-.73,6.4,4,1.43,5.76-3.85,3-6.22a1.53,1.53,0,0,0-2.36.3c-1.4,2.08-1.68,4.44.89,5.55,1.05.46,2.71-.32,2.2-1.69a9.15,9.15,0,0,0-6.2-6,1.51,1.51,0,0,0-1.46,2.51,19.73,19.73,0,0,0,9.17,4.79,1.51,1.51,0,0,0,1.16-2.74,55.2,55.2,0,0,0-11.34-5.49l-.8,2.89a52.87,52.87,0,0,1,11.28,5.36l.36-2.74c-4.28.93-2.65,6.79,1.49,5.31a1.52,1.52,0,0,0,.66-2.51c-2-1.69-8.5-5.8-11-2.77-2.39,2.88,2.31,7.48,4.35,9a1.51,1.51,0,0,0,2.05-.54,8.24,8.24,0,0,0,1.09-4.33c0-2-2.86-1.91-3,0a38.82,38.82,0,0,0,.31,8.35c.26,1.83,2.76,1.11,2.95-.4a22.42,22.42,0,0,0-.25-7.09c-.31-1.69-2.94-1.25-2.95.4a92,92,0,0,0,1.12,14.64,1.5,1.5,0,0,0,1.85,1c8.44-3.22,17.44-5.88,25.51-9.95,3.62-1.83,11.24-8.24,5.78-12.3-5-3.69-15.17,2.25-20.19,3.49-1.34.33-3.33,1.07-4.66.86l-1.42,0L89,93.21c1.42-.12,4.29,1.56,5.89,1.84a26.58,26.58,0,0,0,11.46-.58,1.52,1.52,0,0,0,.36-2.74c-7.06-3.29-14.31-.41-21.72-1.06v3c3.05-.08,5.12,3.85,8.34,4.22,1.66.19,2.07-2.68.4-2.95a58.86,58.86,0,0,1-8.58-2.05l-.8,2.89c9,2.11,18.18-.2,27.3.94l-.76-2.8a14.3,14.3,0,0,1-9.09,1.42l.66,2.51a22.29,22.29,0,0,1,8.07-4.25l-1.46-2.51c-4.66,3.77-9.37,7.56-14.66,10.4-2.32,1.25-5.38,3.23-8,3.26-3.6,0-2.49-4.75-2.54-7.48l-2.95.4a67.59,67.59,0,0,1,1.71,9.84c.18,1.88,3.08,2,3,0a91.19,91.19,0,0,1,.3-11.82L83,96.1,84.91,105a1.51,1.51,0,0,0,2.95-.4l-.15-5.78a1.5,1.5,0,0,0-3,0v5.41h3a56.49,56.49,0,0,1,.23-7.39l-2.8.76a22.05,22.05,0,0,1,1.69,5.61,1.51,1.51,0,0,0,2.89,0l.9-5.08-2.95-.4.53,4.3a1.51,1.51,0,0,0,2.95.4,42.14,42.14,0,0,1,2.24-5.2l-2.8-.76V101a1.51,1.51,0,0,0,2.95.4l.87-2.35-2.95-.4L91.1,102c-.19,1.78,2.41,1.89,2.95.4l1.38-3.88H92.53l.69,2.52a1.51,1.51,0,0,0,2.89,0l1.32-3.66-2.51.66.94,1.43a1.51,1.51,0,0,0,2.36.3l1.06-1.06-2.36-.3.62,1.45c.51,1.19,2.48.83,2.74-.36.91-4.18-4.69-.21-5.4.19l-5.54,3.08,2.26,1.3c-.28-3.44,2.63-6.11,2.21-9.57-.36-2.92-2.74-3.82-4-6.17-2.87-5.5,2.78-5.94,6-7.11q3.51-1.26,7.06-2.4c4.74-1.51,9.53-2.82,14.37-4,1.73-.42,1.21-2.81-.4-2.95-8.54-.72-16.79,1.88-24.17,6.08-6.78,3.86-6,9.71-2.73,16,.92,1.75,3.34.21,2.59-1.51A8.34,8.34,0,0,1,91.86,87l-2.95.4L91.16,93c.69,1.75,3.45,1.1,2.89-.8l-3-10.3-2.89.8,3.12,8.9c.52,1.48,3.18,1.38,2.95-.4L93.4,85l-2.8.76A36.28,36.28,0,0,1,92.92,92l2.89-.8A60.28,60.28,0,0,1,93,82.35l-2.89.8,4,10.14a1.51,1.51,0,0,0,2.95-.4,33.69,33.69,0,0,0-.78-10l-2.89.8c.89,2.83,1.63,5.67,2.24,8.57l2.89-.8L96.78,85a1.51,1.51,0,0,0-2.89,0l-.75,2.09,2.51-.66c1.54,1.44,1,3.89,3.29,5.18,2.41,1.38,5.29.5,7.89.36a1.51,1.51,0,0,0,.4-2.95,26.9,26.9,0,0,1-4.06-1.42q-4.57-1.78-.83-6.89l-1.45-1.9L99.8,81.42q-.4,1.84-.82-.19c.66-1.42-1.17-3.22-2.36-1.82a13.67,13.67,0,0,0-2.3,3.81c-.4,1,.59,1.84,1.45,1.9,3.19.23,4.86-.9,7.17-2.82,2.79-2.31,3.48-3.11,6.66-3.71,2-.37,7.17-1.69,8.45,1.06l2.36-1.82c-5.11-4.21-12.34-4.84-17.38-.07-3.66,3.46-6,10.12-1.4,13.68a1.5,1.5,0,0,0,2.2-.9,17,17,0,0,0-.36-7.34l-2.89.8c1.94,5.88,12,6.6,16.92,4.79a6.81,6.81,0,0,0,2.16-11.73c-1.45-1.27-3.58.85-2.12,2.12q3.4,2.79-.18,6.41a11.35,11.35,0,0,1-5.51.85c-2.22-.05-7.46-.45-8.38-3.24a1.5,1.5,0,0,0-2.89.8,10.53,10.53,0,0,1,.36,5.75l2.2-.9c-3.39-2.61.94-8.46,3.28-10,3.76-2.47,8.53-1.66,11.86,1.1a1.51,1.51,0,0,0,2.36-1.82c-1.78-3.81-6.38-3.26-9.89-2.75-2.13.31-4.87.59-6.81,1.62-3.08,1.63-4,5.42-8.17,5.11L97.22,84l1.53-2.48-2.36-1.82a5.44,5.44,0,0,0,1.68,6.71,1.5,1.5,0,0,0,1.46.39c2.65-1.11,3.24-4.78,4.25-7.21a1.51,1.51,0,0,0-1.45-1.9,5.5,5.5,0,0,0-5.54,6.58c.82,4.65,5.66,6.46,9.62,7.62l.4-2.95c-3.51.19-5.59.47-8.16-2.94-.81-1.08-.83-2.33-1.9-3.34a4.14,4.14,0,0,0-5.11-.81,1.45,1.45,0,0,0-.74,1.3,7.65,7.65,0,0,0,2.61,5.38A1.52,1.52,0,0,0,96,87.87l.75-2.09H93.89l1.75,6.46c.51,1.88,3.29,1.08,2.89-.8-.61-2.9-1.35-5.74-2.24-8.57a1.5,1.5,0,0,0-2.89.8,31,31,0,0,1,.68,9.22l2.95-.4L93,82.35a1.5,1.5,0,0,0-2.89.8A60.28,60.28,0,0,0,92.92,92c.7,1.74,3.42,1.12,2.89-.8a41.84,41.84,0,0,0-2.62-7c-.62-1.29-3-.72-2.8.76l.82,6.28,2.95-.4-3.12-8.9c-.63-1.8-3.44-1.08-2.89.8l3,10.3,2.89-.8-2.24-5.68a1.51,1.51,0,0,0-2.95.4A12.61,12.61,0,0,0,90,94l2.59-1.51c-2.22-4.22-3.26-7.7.91-11.45,1.92-1.73,5.85-3,8.09-3.87a34.84,34.84,0,0,1,15.31-2.22L116.5,72c-6,1.47-12,3.17-17.91,5.17-3.41,1.16-10.33,2.35-12.47,5.71-1.56,2.44-.36,5.08,1.2,7.14,2.37,3.13,3.84,5.12,2.24,9.19a10.31,10.31,0,0,0-1,4.93,1.52,1.52,0,0,0,2.26,1.3c2.15-1.2,13.15-5,11.35-9-1.66-3.73-4.38.37-4.82,2.36l2.74-.36-.62-1.45a1.51,1.51,0,0,0-2.36-.3l-1.06,1.06,2.36.3A7.4,7.4,0,0,0,97,96a1.52,1.52,0,0,0-2.51.66l-1.32,3.66h2.89l-.69-2.52a1.51,1.51,0,0,0-2.89,0l-1.38,3.88,2.95.4.37-3.37c.19-1.79-2.4-1.87-2.95-.4l-.87,2.35,2.95.4V96.45a1.51,1.51,0,0,0-2.8-.76,47.74,47.74,0,0,0-2.55,5.92l2.95.4-.53-4.3c-.19-1.51-2.62-2.23-2.95-.4l-.9,5.08h2.89a26,26,0,0,0-2-6.33c-.68-1.5-2.67-.55-2.8.76a56.49,56.49,0,0,0-.23,7.39,1.5,1.5,0,0,0,3,0V98.81h-3l.15,5.78,2.95-.4L85.86,95.3c-.38-1.76-2.8-1.19-2.95.4a91.19,91.19,0,0,0-.3,11.82h3A72.94,72.94,0,0,0,83.8,96.88a1.51,1.51,0,0,0-2.95.4c0,2.64-.95,7.41,1,9.66,1.74,2,4.87.91,6.93.25,8.51-2.74,15.58-8.43,22.43-14,1.19-1-.1-2.91-1.46-2.51a26.27,26.27,0,0,0-9.39,5,1.51,1.51,0,0,0,.66,2.51,18,18,0,0,0,11.4-1.72c1.49-.74.55-2.63-.76-2.8-8.84-1.11-17.75,1.21-26.5-.83a1.5,1.5,0,0,0-.8,2.89,58.86,58.86,0,0,0,8.58,2.05l.4-2.95c-3.44-.39-4.46-4.32-8.34-4.22a1.5,1.5,0,0,0,0,3c6.65.58,13.9-2.28,20.21.65l.36-2.74C99.48,93.15,94.81,92,89.08,90c-1.77-.63-3.76-1.11-5.4.13-4.52,3.41,1.15,7.57,4.78,7.55,4.07,0,8.12-1.51,11.94-2.76a67.61,67.61,0,0,1,6.62-2c2.35-.51,3.11-1.23,4.23,1.15s.12,2.76-1.73,4.21c-3.67,2.87-8.69,4.15-13,5.79l-14.6,5.57,1.85,1a86.74,86.74,0,0,1-1-13.84l-2.95.4a18.77,18.77,0,0,1,.14,6.29l2.95-.4a34.9,34.9,0,0,1-.21-7.55h-3L79,98.39l2.05-.54Q77,96.09,79.76,93.93a10.17,10.17,0,0,1,4.35,2.4l.66-2.51.1.47a1.52,1.52,0,0,0,.36-2.74,56.38,56.38,0,0,0-12-5.67c-1.84-.62-2.6,2.26-.8,2.89A51.72,51.72,0,0,1,83.07,94l1.16-2.74a16.42,16.42,0,0,1-7.85-4l-1.46,2.51A5.46,5.46,0,0,1,79,93.58l2.2-1.69.19-1.45-2.36.3q-.89,2.41-2.28,1.15-2.17-.77.3-3.23l-2.36.3q-.5,1.5,2.21-1,2.43-2.63,4.46.4a23.3,23.3,0,0,1,3.15,3.44l1.82-2.36c-3.88-2.57-12.38-8.52-16-2.51-3.28,5.47,2.15,10.06,6.68,12,1,.41,2.33,0,2.26-1.3a6.89,6.89,0,0,0-.69-3.26l-1.85,1.85c2.82.64.91,6.29.82,8.36a29.42,29.42,0,0,0,.78,7.43,1.51,1.51,0,0,0,2.51.66c5.59-6.32,15.29-6.1,22.35-10.21A34.93,34.93,0,0,0,117.66,86c.74-1.72-1.61-3.24-2.59-1.51-1.1,2-4.87,2-6.7,1.65A16.75,16.75,0,0,1,103,84.25a1.51,1.51,0,0,0-1.82,2.36c4.1,4.93,10.21,2.87,15.14.46l-1.82-2.36c-1.62,1.65-4.24,3.38-6.75,2.6-1.4-.43-2.34-2.06-3.49-2.85A4.17,4.17,0,0,0,101,83.39a1.52,1.52,0,0,0-1.06,2.56c5.91,6,14.82,5,19.42-2l-2.59-1.51c-2.13,4.16-4.29,8.19-8.34,10.78a1.5,1.5,0,0,0,1.51,2.59l9.91-5.17L118,88.29l-16.74,14c-1.39,1.16.38,3,1.82,2.36a17.76,17.76,0,0,0,7.34-6.37c1-1.49-1.13-2.85-2.36-1.82A15,15,0,0,1,102,100l1.85,1.85a4.17,4.17,0,0,1,2.86-3.53l-2.05-.54c2.73,5.12,9.18,2.4,13.53,4.5,2.69,1.3,5.4,2.19,6.81-1.25.6-1.46-1.52-2.42-2.51-1.46,2-1.91,2.52-6.12,3.15-8.64A9.66,9.66,0,0,1,127,86a3.16,3.16,0,0,0,.9-.84,6.79,6.79,0,0,0,.7-1.78c.25-2.62-2.88-6.4-4-8.53l-6-11.59c-.89-1.72-3.48-.2-2.59,1.51Z" transform="translate(-66.65 -55.31)"/><path class="cls-1" d="M87.07,106.71a71.36,71.36,0,0,0,15.67-7.2c4.56-2.76,9.85-5.67,13.73-9.36,1.51-1.44,4.16-5,1.89-7a2.29,2.29,0,0,0-3.76,1.25,1.51,1.51,0,0,0,1.85,1.85c3.46-1.24,6.49-5.53,6-9.35a3.63,3.63,0,0,0-5.38-3.09c-1.76.8-.23,3.38,1.51,2.59a3.07,3.07,0,0,1-.11,4.14,4.23,4.23,0,0,1-2.86,2.81l1.85,1.85c-.1.39-3.45,3-4,3.49-1.15,1-2.45,1.77-3.69,2.62-2.34,1.61-4.69,3.2-7.09,4.71a70.75,70.75,0,0,1-16.4,7.79c-1.84.57-1.05,3.47.8,2.89Z" transform="translate(-66.65 -55.31)"/><path class="cls-2" d="M85.42,115.56a142.76,142.76,0,0,0,20.84-7.9c4.62-2.21,8.69-4.84,10.44-9.85.64-1.83-2.26-2.61-2.89-.8-1.84,5.26-7.68,7.5-12.39,9.56a146.27,146.27,0,0,1-16.8,6.09c-1.85.55-1.06,3.45.8,2.89Z" transform="translate(-66.65 -55.31)"/><path class="cls-2" d="M138.52,83.11c-3.57,3-1.25,7.8,1,10.83,1.14,1.53,3.74,0,2.59-1.51-1.38-1.86-3.83-5.21-1.47-7.19,1.48-1.24-.65-3.36-2.12-2.12Z" transform="translate(-66.65 -55.31)"/><path class="cls-2" d="M77.2,92.22q-.62.22.83.26.13.21,0,0c-.14-.26,0,.14-.05-.16a3.31,3.31,0,0,0-.43-1,2.15,2.15,0,0,0-2.48-1,1.54,1.54,0,0,0-1,1.85,1.51,1.51,0,0,0,1.85,1,1.25,1.25,0,0,1-.87-.27q.17.18,0,0L75,93q-.09-.24,0,0A3.81,3.81,0,0,0,75.46,94,2.15,2.15,0,0,0,78,95.11a1.55,1.55,0,0,0,1-1.85,1.51,1.51,0,0,0-1.85-1Z" transform="translate(-66.65 -55.31)"/><path class="cls-2" d="M105.76,72.29c.85-.32,9.06-2.82,9-1-.11,1.93,2.89,1.92,3,0,.34-6.13-9.82-2.94-12.76-1.84-1.79.67-1,3.57.8,2.89Z" transform="translate(-66.65 -55.31)"/><path class="cls-2" d="M142.64,61.78c-4,2.6-8.09,5.89-9.06,10.76-1,5.12-.91,10.69,1.48,15.39.88,1.72,3.47.2,2.59-1.51-1.94-3.81-1.85-8.11-1.28-12.25.61-4.51,4.15-7.43,7.79-9.8,1.61-1,.11-3.65-1.51-2.59Z" transform="translate(-66.65 -55.31)"/><path d="M88.2,88a13.78,13.78,0,0,0-9.66-6.58c-3.54-.53-8.42.29-10.48,3.58-4.61,7.38,2.87,15.69,10.16,16.3,1.92.16,1.91-2.84,0-3-5.12-.43-11.38-7-7.12-11.94,4.08-4.75,11.74-1.22,14.5,3.15,1,1.63,3.63.12,2.59-1.51Z" transform="translate(-66.65 -55.31)"/><path d="M87,86c-1.68-5.8,10-8.76,13.29-9.94,2.57-.92,12.87-5.72,15.06-3,1.22,1.5,3.33-.63,2.12-2.12-1.69-2.08-3.84-2.07-6.29-1.51a108.1,108.1,0,0,0-15,5c-5.36,2.1-14.22,5-12.07,12.4A1.5,1.5,0,0,0,87,86Z" transform="translate(-66.65 -55.31)"/><path d="M104.79,72.31c1.92-8.52,11.79-11.11,19.22-12.88,8-1.91,16.31-1.79,23.27,3.14V60c-4.17,2.59-8.54,5.39-10.91,9.85-2.53,4.74-2.12,10.34-1.66,15.49.17,1.91,3.17,1.93,3,0-.4-4.56-1-9.75,1.25-14,2.11-4,6.12-6.46,9.84-8.78a1.52,1.52,0,0,0,0-2.59c-8.11-5.73-18-5.47-27.29-3-8.09,2.15-17.55,5.39-19.61,14.54-.42,1.88,2.47,2.68,2.89.8Z" transform="translate(-66.65 -55.31)"/><path d="M76.16,99.94c.48,4.86.72,9.71.72,14.59a1.51,1.51,0,0,0,1.9,1.45c7.87-2.89,15.9-5.51,23.63-8.76,6.11-2.58,10.31-7.61,16.22-10.32,1.75-.81.23-3.39-1.51-2.59C110.9,97.15,106.47,102.38,100,105c-7.24,2.91-14.67,5.41-22,8.1l1.9,1.45c0-4.88-.24-9.73-.72-14.59-.19-1.9-3.19-1.92-3,0Z" transform="translate(-66.65 -55.31)"/><path d="M82.38,114.15a23.08,23.08,0,0,1-2.71,7.09,1.52,1.52,0,0,0,.23,1.82c3.66,3,7.82,2.88,12.12,1.29,7.29-2.7,14.26-6.14,21.66-8.67,3.55-1.21,7.11-2.4,10.62-3.73,1.87-.7,4.12-1.34,5.39-3,3.19-4.18,1.63-12,.72-16.73-.36-1.89-3.26-1.09-2.89.8a38.61,38.61,0,0,1,.78,8.28c-.12,4.81-1.89,6.49-6.55,8.41-4,1.66-8.29,2.86-12.41,4.3-3.66,1.28-7.3,2.61-10.86,4.14C93.62,120.23,87,125,82,120.93l.23,1.82a25.29,25.29,0,0,0,3-7.8c.39-1.88-2.5-2.69-2.89-.8Z" transform="translate(-66.65 -55.31)"/><path d="M136.16,83.62a14.27,14.27,0,0,1,8.91,6.25c1.48,2.14,3.83,5.67,3.65,8.32-.44,6.45-12.91,7.23-17.66,6.19-1.88-.41-2.69,2.48-.8,2.89a23,23,0,0,0,13-.73c2.93-1.09,7.92-3.45,8.92-6.72,1.07-3.53-3.06-9.41-5-12.09a16.8,16.8,0,0,0-10.25-7c-1.88-.39-2.69,2.5-.8,2.89Z" transform="translate(-66.65 -55.31)"/><path d="M135.25,84.79a10.27,10.27,0,0,0,2.69,9.9,1.5,1.5,0,0,0,2.12-2.12,7.18,7.18,0,0,1-1.92-7c.48-1.87-2.41-2.67-2.89-.8Z" transform="translate(-66.65 -55.31)"/><path d="M75.38,92.79a2.47,2.47,0,0,0-.88-1.11c-.51-.45-.6-1,.24-1a3.28,3.28,0,0,1,1,.14,4,4,0,0,1,2.83,3.44c0,.48.79.48.75,0A4.72,4.72,0,0,0,75.56,90c-.68-.12-1.81-.2-2.21.52-.62,1.13,1,1.64,1.3,2.47.16.45.88.26.72-.2Z" transform="translate(-66.65 -55.31)"/><path class="cls-3" d="M106.1,85.64c2,.36,3.92.64,5.8-.21A36.17,36.17,0,0,0,117.12,82c1.58-1.09.08-3.69-1.51-2.59-1.24.85-2.46,1.72-3.72,2.55a5.91,5.91,0,0,1-5,.78c-1.89-.35-2.7,2.54-.8,2.89Z" transform="translate(-66.65 -55.31)"/><path class="cls-2" d="M105.61,84a8.35,8.35,0,0,1,4.21-2.38,17.21,17.21,0,0,0,4.34-1.1c1.75-.88.22-3.37-1.51-2.59l-5.55,2.49c-1.76.79-.23,3.37,1.51,2.59l5.55-2.49L112.65,78c-1.58.8-3.51.62-5.17,1.28a11.54,11.54,0,0,0-4,2.67c-1.36,1.37.76,3.5,2.12,2.12Z" transform="translate(-66.65 -55.31)"/><path class="cls-4" d="M108,83.05a2.16,2.16,0,1,0,3.65-.74,1.89,1.89,0,0,0-2.29-.41,1.68,1.68,0,0,0-.69,1.85,1.49,1.49,0,0,0,1.81,1.08A1.62,1.62,0,0,0,111.69,83a.76.76,0,0,0-.92-.52.77.77,0,0,0-.52.92c0-.25,0,0-.08,0s0,.09,0,0a.42.42,0,0,1,0-.21c.24-.22.56.32.53.58s-.29.67-.63.64a.75.75,0,0,1-.58-1c.29-.92-1.16-1.32-1.45-.4Z" transform="translate(-66.65 -55.31)"/><path d="M102.83,84.49c5.19.59,10.08-2.7,14.56-4.89.87-.42.11-1.72-.76-1.3-4.24,2.08-8.91,5.24-13.8,4.68-1-.11-.95,1.39,0,1.5Z" transform="translate(-66.65 -55.31)"/><path d="M104.38,83.59c-.13-2.78,3.59-4,5.67-4.31a27,27,0,0,1,5.75-.12c1,0,1-1.45,0-1.5-3.92-.19-13.2-.08-12.92,5.93,0,1,1.55,1,1.5,0Z" transform="translate(-66.65 -55.31)"/><path d="M103.64,85.1c2.83.8,4.54,2.28,7.62,1.35,2.92-.88,5-3.17,6.85-5.48.6-.75-.46-1.81-1.06-1.06-1.67,2.09-3.53,4.3-6.19,5.1s-4.39-.66-6.82-1.35a.75.75,0,0,0-.4,1.45Z" transform="translate(-66.65 -55.31)"/></svg>