<svg id="Layer_4" data-name="Layer 4" xmlns="http://www.w3.org/2000/svg" viewBox="0 0 111.71 51.13"><defs><style>.cls-1{fill:#37275b;}.cls-1,.cls-2{stroke:#000;}.cls-2{fill:#fff;}</style></defs><title>mountain</title><path class="cls-1" d="M570,699.23,542.5,650l-9.72,9.82L528.64,664l-13.33,13.46L500,693.5a232.62,232.62,0,0,0,70,5.73Z" transform="translate(-459.11 -649.17)"/><path class="cls-1" d="M460,694l24.26-28.85L497,650l31,46.5a150.93,150.93,0,0,1-68-2.5Z" transform="translate(-459.11 -649.17)"/><polygon class="cls-2" points="29.89 19.33 36.89 17.02 41.39 19.33 48.68 17.02 37.89 0.83 25.15 15.98 29.89 19.33"/><polygon class="cls-2" points="78.39 14.83 84.89 10.65 91.21 14.83 83.39 0.83 73.67 10.65 78.39 14.83"/><polygon class="cls-1" points="48.68 2.83 56.63 12.54 63.49 20.93 56.2 28.29 44.43 10.65 48.68 2.83"/><polygon class="cls-2" points="53.96 15.56 56.63 12.54 48.68 2.83 44.43 10.65 48.68 17.02 53.96 15.56"/></svg>